<?xml version="1.0" encoding="utf-8"?>
<!-- Generator: Adobe Illustrator 27.4.1, SVG Export Plug-In . SVG Version: 6.00 Build 0)  -->
<svg version="1.1" id="Слой_1" xmlns="http://www.w3.org/2000/svg" xmlns:xlink="http://www.w3.org/1999/xlink" x="0px" y="0px"
	 viewBox="0 0 800 800" style="enable-background:new 0 0 800 800;" xml:space="preserve">
<style type="text/css">
	.st0{fill-rule:evenodd;clip-rule:evenodd;fill:#D8ACAB;}
</style>
<path class="st0" d="M176.4,176.4c13-13,34.1-13,47.1,0L400,352.9l176.4-176.4c13-13,34.1-13,47.1,0c13,13,13,34.1,0,47.1L447.1,400
	l176.4,176.4c13,13,13,34.1,0,47.1c-13,13-34.1,13-47.1,0L400,447.1L223.6,623.6c-13,13-34.1,13-47.1,0c-13-13-13-34.1,0-47.1
	L352.9,400L176.4,223.6C163.4,210.6,163.4,189.4,176.4,176.4z"/>
</svg>
